<?xml version="1.0" encoding="UTF-8" standalone="no"?>
<!-- Created with Inkscape (http://www.inkscape.org/) -->

<svg
   xmlns:dc="http://purl.org/dc/elements/1.1/"
   xmlns:cc="http://creativecommons.org/ns#"
   xmlns:rdf="http://www.w3.org/1999/02/22-rdf-syntax-ns#"
   xmlns:svg="http://www.w3.org/2000/svg"
   xmlns="http://www.w3.org/2000/svg"
   xmlns:sodipodi="http://sodipodi.sourceforge.net/DTD/sodipodi-0.dtd"
   xmlns:inkscape="http://www.inkscape.org/namespaces/inkscape"
   width="400"
   height="50"
   viewBox="0 0 105.83333 13.229167"
   version="1.1"
   id="svg8"
   inkscape:version="0.92.5 (0.92.5+68)"
   sodipodi:docname="hextatic_n.svg">
  <defs
     id="defs2" />
  <sodipodi:namedview
     id="base"
     pagecolor="#ffffff"
     bordercolor="#666666"
     borderopacity="1.0"
     inkscape:pageopacity="0.0"
     inkscape:pageshadow="2"
     inkscape:zoom="1.4"
     inkscape:cx="97.857143"
     inkscape:cy="96.554112"
     inkscape:document-units="mm"
     inkscape:current-layer="layer1"
     showgrid="false"
     units="px"
     inkscape:window-width="1920"
     inkscape:window-height="1015"
     inkscape:window-x="0"
     inkscape:window-y="0"
     inkscape:window-maximized="1" />
  <metadata
     id="metadata5">
    <rdf:RDF>
      <cc:Work
         rdf:about="">
        <dc:format>image/svg+xml</dc:format>
        <dc:type
           rdf:resource="http://purl.org/dc/dcmitype/StillImage" />
        <dc:title></dc:title>
      </cc:Work>
    </rdf:RDF>
  </metadata>
  <g
     inkscape:label="Layer 1"
     inkscape:groupmode="layer"
     id="layer1"
     transform="translate(0,-283.77082)">
      <path
         d="m 3.4698329,288.03732 v -1.60302 h 4.6284445 v 3.12702 h 5.8250666 v -3.12702 h 2.9464 v 7.90222 h -2.9464 v -3.17218 H 8.0982774 v 3.17218 H 5.1518773 v -6.2992 z"
         style="stroke-width:0.26458332"
         id="path833" />
      <path
         d="m 17.999868,288.03732 v -1.60302 h 13.422489 v 2.91253 l -2.9464,-0.4064 v -0.90311 h -5.836356 v 1.54658 h 4.797778 v 1.60302 h -4.797778 v 1.54658 h 5.836356 v -0.90312 l 2.9464,-0.4064 v 2.91254 H 19.693201 v -6.2992 z"
         style="stroke-width:0.26458332"
         id="path835" />
      <path
         d="m 32.557244,288.03732 v -1.60302 h 3.838222 l 2.709334,2.42711 2.596444,-2.42711 h 3.668889 l -4.233333,3.95111 2.596444,2.34809 h 1.693333 v 1.60302 h -3.838222 l -2.709333,-2.42711 -2.596445,2.42711 h -3.668889 l 4.233334,-3.95111 -2.596445,-2.34809 z"
         style="stroke-width:0.26458332"
         id="path837" />
      <path
         d="M 45.987493,289.59518 V 286.4343 H 58.61976 v 3.16088 l -2.946401,-0.4064 v -1.15146 h -1.896533 v 6.2992 h -2.9464 v -6.2992 h -1.896533 v 1.15146 z"
         style="stroke-width:0.26458332"
         id="path839" />
      <path
         d="m 58.395569,294.33652 2.754489,-6.2992 h -1.399822 v -1.60302 h 7.845777 l 3.431823,7.90222 h -3.048 l -0.857956,-1.97556 h -4.809067 l -0.857955,1.97556 z m 4.617155,-3.57858 h 3.409245 l -1.196622,-2.72062 h -1.016 z"
         style="stroke-width:0.26458332"
         id="path841" />
      <path
         d="m 70.218915,289.59518 v -3.16088 h 12.632267 v 3.16088 l -2.9464,-0.4064 v -1.15146 h -1.896533 v 6.2992 h -2.9464 v -6.2992 h -1.896534 v 1.15146 z"
         style="stroke-width:0.26458332"
         id="path843" />
      <path
         d="m 83.197608,288.03732 v -1.60302 h 4.628445 v 7.90222 h -2.9464 v -6.2992 z"
         style="stroke-width:0.26458332"
         id="path845" />
      <path
         d="M 88.952301,288.03732 V 286.4343 H 102.3635 v 2.91253 l -2.946399,-0.4064 v -0.90311 h -5.836356 v 4.69618 h 5.836356 v -0.90312 l 2.946399,-0.4064 v 2.91254 H 90.634345 v -6.2992 z"
         style="stroke-width:0.26458332"
         id="path847" />
  </g>
</svg>
