<?xml version="1.0" encoding="UTF-8" standalone="no"?>
<!-- Created with Inkscape (http://www.inkscape.org/) -->

<svg
   xmlns:dc="http://purl.org/dc/elements/1.1/"
   xmlns:cc="http://creativecommons.org/ns#"
   xmlns:rdf="http://www.w3.org/1999/02/22-rdf-syntax-ns#"
   xmlns:svg="http://www.w3.org/2000/svg"
   xmlns="http://www.w3.org/2000/svg"
   xmlns:sodipodi="http://sodipodi.sourceforge.net/DTD/sodipodi-0.dtd"
   xmlns:inkscape="http://www.inkscape.org/namespaces/inkscape"
   width="16mm"
   height="16mm"
   viewBox="0 0 16 16"
   version="1.1"
   id="svg8"
   inkscape:export-filename="/home/sbash/worxpace/polygonull/images/polygonull.png"
   inkscape:export-xdpi="76.199997"
   inkscape:export-ydpi="76.199997"
   inkscape:version="0.92.5 (0.92.5+68)"
   sodipodi:docname="polygonull.svg">
  <defs
     id="defs2" />
  <sodipodi:namedview
     id="base"
     pagecolor="#ffffff"
     bordercolor="#666666"
     borderopacity="1.0"
     inkscape:pageopacity="0.0"
     inkscape:pageshadow="2"
     inkscape:zoom="7.919596"
     inkscape:cx="28.337231"
     inkscape:cy="29.644233"
     inkscape:document-units="mm"
     inkscape:current-layer="layer1"
     showgrid="false"
     inkscape:window-width="1920"
     inkscape:window-height="1015"
     inkscape:window-x="0"
     inkscape:window-y="0"
     inkscape:window-maximized="1" />
  <metadata
     id="metadata5">
    <rdf:RDF>
      <cc:Work
         rdf:about="">
        <dc:format>image/svg+xml</dc:format>
        <dc:type
           rdf:resource="http://purl.org/dc/dcmitype/StillImage" />
        <dc:title />
      </cc:Work>
    </rdf:RDF>
  </metadata>
  <g
     inkscape:label="Layer 1"
     inkscape:groupmode="layer"
     id="layer1"
     transform="translate(0,-281)">
    <flowRoot
       xml:space="preserve"
       id="flowRoot831"
       style="fill:black;fill-opacity:1;stroke:none;font-family:Play;font-style:normal;font-weight:bold;font-size:192px;line-height:1.25;letter-spacing:0px;word-spacing:0px;-inkscape-font-specification:'Play Bold';font-stretch:normal;font-variant:normal"><flowRegion
         id="flowRegion833"><rect
           id="rect835"
           width="1115.2084"
           height="553.5636"
           x="169.70563"
           y="-1147.67" /></flowRegion><flowPara
         id="flowPara837" /></flowRoot>    <rect
       style="opacity:1;fill:#ffffff;fill-opacity:1;stroke:#000000;stroke-width:1;stroke-miterlimit:4;stroke-dasharray:none;stroke-dashoffset:0;stroke-opacity:1"
       id="rect841"
       width="14"
       height="14"
       x="1"
       y="282"
       inkscape:export-xdpi="27.093334"
       inkscape:export-ydpi="27.093334" />
    <text
       xml:space="preserve"
       style="font-style:normal;font-variant:normal;font-weight:bold;font-stretch:normal;font-size:5.64444444px;line-height:1.25;font-family:Play;-inkscape-font-specification:'Play Bold';letter-spacing:0px;word-spacing:0px;fill:#000000;fill-opacity:1;stroke:none;stroke-width:0.26458332;"
       x="5.4806552"
       y="288.92075"
       id="text845"><tspan
         sodipodi:role="line"
         id="tspan843"
         x="5.4806552"
         y="291.55911"
         style="stroke-width:0.26458332;font-size:5.64444444px;" /></text>
    <text
       xml:space="preserve"
       style="font-style:normal;font-variant:normal;font-weight:bold;font-stretch:normal;font-size:5.64444447px;line-height:1.25;font-family:Play;-inkscape-font-specification:'Play Bold';letter-spacing:0px;word-spacing:0px;fill:#000000;fill-opacity:1;stroke:none;stroke-width:0.26458332"
       x="5.2916665"
       y="289.51135"
       id="text849"><tspan
         sodipodi:role="line"
         id="tspan847"
         x="5.2916665"
         y="294.78809"
         style="stroke-width:0.26458332" /></text>
    <text
       xml:space="preserve"
       style="font-style:normal;font-variant:normal;font-weight:bold;font-stretch:normal;font-size:4.93888855px;line-height:1.25;font-family:Play;-inkscape-font-specification:'Play Bold';letter-spacing:0px;word-spacing:0px;fill:#000000;fill-opacity:1;stroke:none;stroke-width:0.26458332"
       x="4.9845614"
       y="288.73178"
       id="text853"><tspan
         sodipodi:role="line"
         id="tspan851"
         x="4.9845614"
         y="293.34891"
         style="stroke-width:0.26458332" /></text>
    <text
       xml:space="preserve"
       style="font-style:normal;font-variant:normal;font-weight:bold;font-stretch:normal;font-size:5.64444447px;line-height:1.25;font-family:Play;-inkscape-font-specification:'Play Bold';letter-spacing:0px;word-spacing:0px;fill:#000000;fill-opacity:1;stroke:none;stroke-width:0.26458332"
       x="6.0476193"
       y="288.84988"
       id="text861"><tspan
         sodipodi:role="line"
         id="tspan859"
         x="6.0476193"
         y="294.12662"
         style="stroke-width:0.26458332" /></text>
    <text
       xml:space="preserve"
       style="font-style:normal;font-variant:normal;font-weight:bold;font-stretch:normal;font-size:11.28888893px;line-height:1.25;font-family:Play;-inkscape-font-specification:'Play Bold';letter-spacing:0px;word-spacing:0px;fill:#000000;fill-opacity:1;stroke:none;stroke-width:0.26458332;stroke-opacity:1;"
       x="4.2915998"
       y="292.66324"
       id="text865"><tspan
         sodipodi:role="line"
         id="tspan863"
         x="4.2915998"
         y="292.66324"
         style="stroke-width:0.26458332;fill:#000000;fill-opacity:1;stroke:none;stroke-opacity:1;">P</tspan></text>
    <path
       style="opacity:1;fill:none;fill-opacity:1;stroke:none;stroke-width:0.33745784;stroke-miterlimit:4;stroke-dasharray:none;stroke-dashoffset:0;stroke-opacity:1"
       d="M 5.6932614,30.261915 V 5.7529859 H 30.246833 54.800404 V 30.261915 54.770843 H 30.246833 5.6932614 Z m 20.1785716,9.387358 v -4.496571 l 3.325893,-0.0515 c 1.829241,-0.02833 3.727678,-0.09533 4.21875,-0.148894 4.859661,-0.530094 6.813991,-1.753209 7.6499,-4.787684 0.185711,-0.674161 0.194847,-0.884936 0.200901,-4.634851 0.0056,-3.491411 -0.01163,-4.005156 -0.155167,-4.616799 -0.231764,-0.9876 -0.620675,-1.701533 -1.304163,-2.394083 -0.985361,-0.998426 -2.448279,-1.582192 -4.828971,-1.926963 -0.871555,-0.126218 -2.143774,-0.154821 -8.415179,-0.189191 l -7.388393,-0.04049 v 13.8918 13.8918 h 3.348215 3.348214 z"
       id="path829"
       inkscape:connector-curvature="0"
       transform="matrix(0.26458333,0,0,0.26458333,0,281)" />
    <path
       style="opacity:1;fill:none;fill-opacity:1;stroke:none;stroke-width:0.33745784;stroke-miterlimit:4;stroke-dasharray:none;stroke-dashoffset:0;stroke-opacity:1"
       d="M 5.6932614,30.261915 V 5.7529859 H 30.246833 54.800404 V 30.261915 54.770843 H 30.246833 5.6932614 Z m 20.1785716,9.433284 v -4.450643 l 1.004464,-0.05788 c 0.552456,-0.03183 1.707589,-0.05863 2.566964,-0.05955 3.341307,-0.0036 5.91982,-0.290547 7.631542,-0.849374 2.161198,-0.705567 3.328154,-1.868225 3.989741,-3.975045 0.2067,-0.658233 0.209075,-0.712964 0.209075,-4.817583 0,-4.640315 -0.007,-4.704979 -0.637199,-5.904289 -0.367717,-0.699767 -1.166443,-1.503354 -1.926478,-1.938202 -0.683307,-0.390948 -1.903012,-0.769595 -3.200549,-0.993582 -1.20574,-0.208139 -1.88611,-0.225881 -11.802739,-0.307777 l -4.53125,-0.03742 V 30.22485 44.145843 h 3.348215 3.348214 z"
       id="path831"
       inkscape:connector-curvature="0"
       transform="matrix(0.26458333,0,0,0.26458333,0,281)" />
    <path
       style="opacity:1;fill:none;fill-opacity:1;stroke:none;stroke-width:0.33745784;stroke-miterlimit:4;stroke-dasharray:none;stroke-dashoffset:0;stroke-opacity:1"
       d="m 25.871833,25.844372 v -4.661137 l 3.415178,0.03844 c 2.862733,0.03222 3.501007,0.06296 3.945764,0.190005 0.720666,0.205864 1.043082,0.42286 1.303173,0.877075 0.217733,0.380242 0.220082,0.40861 0.248193,2.996796 0.01828,1.683497 -0.007,2.783163 -0.07098,3.09153 -0.143719,0.69229 -0.506696,1.211666 -1.054922,1.509467 -0.842116,0.457444 -1.388043,0.523648 -4.72837,0.573408 l -3.058036,0.04555 z"
       id="path833"
       inkscape:connector-curvature="0"
       transform="matrix(0.26458333,0,0,0.26458333,0,281)"
       inkscape:export-xdpi="514.89587"
       inkscape:export-ydpi="514.89587" />
  </g>
</svg>
